# xmcd CD database file
#
# Track frame offsets:
#	150
#	16875
#	36737
#	49887
#	67465
#	118500
#	141555
#	164075
#	179117
#	201990
#
# Disc length: 2930 seconds
#
# Revision: 0
# Processed by: cddbd v1.5.2PL0 Copyright (c) Steve Scherf et al.
# Submitted via: CDex 1.51
#
DISCID=ac0b700a
DTITLE=The Blackwater Blues Band (Nimmo Bros.) - Breakin' Out The Blues
DYEAR=1993
DGENRE=Blues
TTITLE0=Went Out Last Night
TTITLE1=Crosscut Saw
TTITLE2=Sidetracked
TTITLE3=My Heart Beat Like A hammer
TTITLE4=Lost Your Heart
TTITLE5=Lazy Maisie
TTITLE6=Reason To Believe
TTITLE7=I'm Ready
TTITLE8=Blackwater Blues
TTITLE9=Breakin' Out The Blues
EXTD=YEAR: 1993
EXTT0=
EXTT1=
EXTT2=
EXTT3=
EXTT4=
EXTT5=
EXTT6=
EXTT7=
EXTT8=
EXTT9=
PLAYORDER=
